<?xml version="1.0" encoding="utf-8"?>
<!-- Generator: Adobe Illustrator 22.1.0, SVG Export Plug-In . SVG Version: 6.00 Build 0)  -->
<svg version="1.1" id="Layer_1" xmlns="http://www.w3.org/2000/svg" xmlns:xlink="http://www.w3.org/1999/xlink" x="0px" y="0px"
	 viewBox="0 0 500 500" style="enable-background:new 0 0 500 500;" xml:space="preserve">
<path d="M372.1,204c14.1-11.3,11.1-30.3,13.6-46.2c1.8,16.9,14.5,27.1,4.8,39.3C387,201.6,379.8,205.2,372.1,204z M114.1,157.8
	c-1.8,16.9-14.5,27.1-4.8,39.3c3.6,4.5,10.8,8.1,18.4,6.9C113.6,192.7,116.6,173.7,114.1,157.8z M196,404.4c0.5,3.4,1.7,6.1,3.4,7.2
	c0,0,0,0,0,0c0.2,0.1,0.4,0.2,0.6,0.3c0,0,0.1,0,0.1,0c0.2,0.1,0.4,0.1,0.7,0.2c0.2,0,0.4,0,0.5,0c0,0,0,0,0.1,0c0,0,0,0,0.1,0
	c0.3,0,0.5,0,0.8-0.1c0,0,0,0,0.1,0c0.3-0.1,0.5-0.2,0.8-0.3c0,0,0,0,0.1,0c0.3-0.1,0.5-0.3,0.8-0.5c0,0,0.1,0,0.1-0.1
	c0.3-0.2,0.5-0.4,0.7-0.6c0,0,0.1-0.1,0.1-0.1c0.2-0.2,0.5-0.5,0.7-0.7c0,0,0.1-0.1,0.1-0.1c0.2-0.3,0.5-0.6,0.7-0.9
	c0,0,0.1-0.1,0.1-0.1c0.2-0.3,0.5-0.7,0.7-1c0,0,0-0.1,0.1-0.1c0.2-0.4,0.5-0.8,0.7-1.2c0.7,3,2.2,5.1,4.1,5.4c0.2,0,0.4,0,0.5,0
	c0,0,0.1,0,0.1,0c0.1,0,0.2,0,0.3,0c0.1,0,0.3,0,0.4-0.1c0.1,0,0.2-0.1,0.3-0.1c0.1,0,0.3-0.1,0.4-0.1c0.1,0,0.2-0.1,0.3-0.1
	c0.1-0.1,0.2-0.1,0.4-0.2c0.1-0.1,0.2-0.1,0.3-0.2c0.1-0.1,0.2-0.2,0.4-0.3c0.1-0.1,0.2-0.2,0.3-0.2c0.1-0.1,0.2-0.2,0.4-0.3
	c0.1-0.1,0.2-0.2,0.3-0.3c0.1-0.1,0.2-0.3,0.3-0.4c0.1-0.1,0.2-0.2,0.3-0.3c0.1-0.1,0.2-0.3,0.3-0.4c0.1-0.1,0.2-0.3,0.3-0.4
	c0.1-0.2,0.2-0.3,0.3-0.5c0.1-0.1,0.2-0.3,0.3-0.4c0.1-0.2,0.2-0.4,0.3-0.5c0.1-0.2,0.2-0.3,0.2-0.5c0.1-0.2,0.2-0.4,0.3-0.6
	c0.1-0.2,0.2-0.3,0.2-0.5c0.1-0.2,0.2-0.4,0.3-0.6c0.1-0.2,0.1-0.3,0.2-0.5c0.1-0.2,0.2-0.5,0.2-0.7c0.1-0.2,0.1-0.4,0.2-0.5
	c0.1-0.2,0.2-0.5,0.2-0.8c0.1-0.2,0.1-0.4,0.2-0.5c0.1-0.3,0.1-0.6,0.2-0.9c0-0.2,0.1-0.3,0.1-0.5c0.1-0.5,0.2-0.9,0.3-1.4
	c1.3-7.8-0.6-14.6-4.2-15.2c-0.2,0-0.4,0-0.5,0c0,0-0.1,0-0.1,0c-0.1,0-0.2,0-0.3,0c-0.1,0-0.3,0-0.4,0.1c-0.1,0-0.2,0.1-0.3,0.1
	c-0.1,0.1-0.3,0.1-0.4,0.2c-0.1,0.1-0.2,0.1-0.3,0.2c-0.1,0.1-0.3,0.2-0.4,0.3c-0.1,0.1-0.2,0.2-0.3,0.2c-0.1,0.1-0.3,0.3-0.4,0.4
	c-0.1,0.1-0.2,0.2-0.3,0.3c-0.1,0.2-0.3,0.3-0.4,0.5c-0.1,0.1-0.2,0.2-0.3,0.3c-0.2,0.2-0.3,0.4-0.5,0.6c-0.1,0.1-0.2,0.2-0.2,0.3
	c-0.2,0.3-0.4,0.7-0.7,1.1c-0.7-3.8-2.4-6.4-4.7-6.8c-0.2,0-0.4,0-0.6,0c-0.1,0-0.1,0-0.1,0c-0.1,0-0.2,0-0.3,0
	c-0.2,0-0.3,0-0.5,0.1c-0.1,0-0.2,0.1-0.4,0.1c-0.2,0.1-0.3,0.1-0.5,0.2c-0.1,0.1-0.2,0.1-0.4,0.2c-0.2,0.1-0.3,0.2-0.5,0.3
	c-0.1,0.1-0.2,0.2-0.3,0.2c-0.2,0.1-0.3,0.3-0.5,0.4c-0.1,0.1-0.2,0.2-0.3,0.3c-0.2,0.2-0.3,0.3-0.5,0.5c-0.1,0.1-0.2,0.2-0.3,0.3
	c-0.2,0.2-0.3,0.4-0.5,0.7c-0.1,0.1-0.2,0.2-0.2,0.3c-0.2,0.4-0.5,0.7-0.7,1.1c-0.7-3.5-2.2-5.9-4.3-6.3c-0.2,0-0.4,0-0.5,0
	c0,0-0.1,0-0.1,0c-0.1,0-0.1,0-0.2,0c-0.1,0-0.3,0-0.4,0.1c-0.1,0-0.2,0-0.2,0.1c-0.1,0-0.3,0.1-0.4,0.2c-0.1,0-0.1,0.1-0.2,0.1
	c-0.2,0.1-0.4,0.2-0.6,0.3c-0.1,0-0.1,0.1-0.2,0.1c-0.1,0.1-0.3,0.2-0.4,0.3c-0.1,0.1-0.2,0.2-0.3,0.2c-0.1,0.1-0.2,0.2-0.3,0.3
	c-0.1,0.1-0.2,0.2-0.3,0.3c-0.1,0.1-0.2,0.2-0.3,0.3c-0.1,0.1-0.2,0.2-0.3,0.4c0,0,0,0.1-0.1,0.1c-0.3,0.4-0.6,0.7-0.8,1.2
	c0,0.1-0.1,0.1-0.1,0.2c-0.1,0.2-0.2,0.4-0.4,0.6c0,0.1-0.1,0.1-0.1,0.2c-0.1,0.2-0.3,0.5-0.4,0.7c0,0,0,0.1,0,0.1
	c-0.4,0.8-0.8,1.8-1.1,2.7c0,0,0,0,0,0c-0.1,0.3-0.2,0.6-0.3,1c0,0,0,0.1,0,0.1c0,0,0,0,0,0c-0.3,1.1-0.6,2.3-0.8,3.5
	c-1.3,7.8,0.6,14.6,4.2,15.2C192.3,408.4,194.3,406.9,196,404.4z M312.9,389.4L312.9,389.4C312.9,389.4,312.9,389.3,312.9,389.4
	c-0.4-1.4-0.9-2.7-1.5-3.8c0,0,0-0.1,0-0.1c-0.1-0.3-0.3-0.5-0.4-0.7c0-0.1-0.1-0.1-0.1-0.2c-0.1-0.2-0.3-0.5-0.4-0.7
	c0,0-0.1-0.1-0.1-0.1c-0.3-0.4-0.5-0.8-0.8-1.2c0-0.1-0.1-0.1-0.1-0.2c-0.1-0.1-0.2-0.3-0.3-0.4c-0.1-0.1-0.2-0.2-0.3-0.3
	c-0.1-0.1-0.2-0.2-0.3-0.3c-0.1-0.1-0.2-0.2-0.3-0.3c-0.1-0.1-0.2-0.2-0.3-0.2c-0.1-0.1-0.3-0.2-0.4-0.3c-0.1,0-0.1-0.1-0.2-0.1
	c-0.2-0.1-0.4-0.2-0.6-0.3c-0.1,0-0.1-0.1-0.2-0.1c-0.1-0.1-0.3-0.1-0.4-0.1c-0.1,0-0.2,0-0.2-0.1c-0.1,0-0.3-0.1-0.4-0.1
	c-0.1,0-0.1,0-0.2,0c0,0-0.1,0-0.1,0c-0.2,0-0.4,0-0.5,0c-2.1,0.4-3.6,2.8-4.3,6.3c-0.2-0.4-0.5-0.8-0.7-1.1
	c-0.1-0.1-0.2-0.2-0.2-0.3c-0.2-0.2-0.3-0.5-0.5-0.7c-0.1-0.1-0.2-0.2-0.3-0.3c-0.2-0.2-0.3-0.4-0.5-0.5c-0.1-0.1-0.2-0.2-0.3-0.3
	c-0.2-0.1-0.3-0.3-0.5-0.4c-0.1-0.1-0.2-0.2-0.3-0.2c-0.2-0.1-0.3-0.2-0.5-0.3c-0.1-0.1-0.2-0.1-0.3-0.2c-0.2-0.1-0.3-0.1-0.5-0.2
	c-0.1,0-0.2-0.1-0.4-0.1c-0.2,0-0.3-0.1-0.5-0.1c-0.1,0-0.2,0-0.3,0c0,0-0.1,0-0.1,0c-0.2,0-0.4,0-0.6,0c-2.3,0.4-3.9,3-4.7,6.8
	c-0.2-0.4-0.4-0.7-0.7-1.1c-0.1-0.1-0.1-0.2-0.2-0.3c-0.2-0.2-0.3-0.4-0.5-0.6c-0.1-0.1-0.2-0.2-0.3-0.3c-0.1-0.2-0.3-0.3-0.4-0.5
	c-0.1-0.1-0.2-0.2-0.3-0.3c-0.1-0.1-0.3-0.3-0.4-0.4c-0.1-0.1-0.2-0.2-0.3-0.2c-0.1-0.1-0.3-0.2-0.4-0.3c-0.1-0.1-0.2-0.1-0.3-0.2
	c-0.1-0.1-0.3-0.1-0.4-0.2c-0.1,0-0.2-0.1-0.3-0.1c-0.1,0-0.3-0.1-0.4-0.1c-0.1,0-0.2,0-0.3,0c0,0-0.1,0-0.1,0c-0.2,0-0.4,0-0.5,0
	c-3.7,0.6-5.6,7.4-4.2,15.2c0.1,0.5,0.2,0.9,0.3,1.4c0,0.2,0.1,0.3,0.1,0.5c0.1,0.3,0.1,0.6,0.2,0.9c0,0.2,0.1,0.4,0.2,0.5
	c0.1,0.3,0.1,0.5,0.2,0.8c0.1,0.2,0.1,0.4,0.2,0.5c0.1,0.2,0.2,0.5,0.2,0.7c0.1,0.2,0.1,0.3,0.2,0.5c0.1,0.2,0.2,0.4,0.3,0.6
	c0.1,0.2,0.1,0.3,0.2,0.5c0.1,0.2,0.2,0.4,0.3,0.6c0.1,0.2,0.2,0.3,0.2,0.5c0.1,0.2,0.2,0.4,0.3,0.5c0.1,0.1,0.2,0.3,0.3,0.4
	c0.1,0.2,0.2,0.3,0.3,0.5c0.1,0.1,0.2,0.3,0.3,0.4c0.1,0.2,0.2,0.3,0.3,0.4c0.1,0.1,0.2,0.2,0.3,0.3c0.1,0.1,0.2,0.3,0.3,0.4
	c0.1,0.1,0.2,0.2,0.3,0.3c0.1,0.1,0.2,0.2,0.4,0.3c0.1,0.1,0.2,0.2,0.3,0.2c0.1,0.1,0.2,0.2,0.4,0.3c0.1,0.1,0.2,0.1,0.3,0.2
	c0.1,0.1,0.2,0.1,0.4,0.2c0.1,0,0.2,0.1,0.3,0.1c0.1,0.1,0.3,0.1,0.4,0.1c0.1,0,0.2,0.1,0.3,0.1c0.1,0,0.3,0,0.4,0.1
	c0.1,0,0.2,0,0.3,0c0,0,0.1,0,0.1,0c0.2,0,0.4,0,0.5,0c1.9-0.3,3.4-2.4,4.1-5.4c0.2,0.4,0.4,0.8,0.7,1.2c0,0,0,0.1,0.1,0.1
	c0.2,0.4,0.4,0.7,0.7,1c0,0,0.1,0.1,0.1,0.1c0.2,0.3,0.5,0.6,0.7,0.9c0,0,0.1,0.1,0.1,0.1c0.2,0.3,0.5,0.5,0.7,0.7
	c0,0,0.1,0.1,0.1,0.1c0.2,0.2,0.5,0.4,0.7,0.6c0,0,0.1,0,0.1,0.1c0.3,0.2,0.5,0.3,0.8,0.5c0,0,0,0,0.1,0c0.3,0.1,0.5,0.2,0.8,0.3
	c0,0,0,0,0.1,0c0.3,0.1,0.5,0.1,0.8,0.1c0,0,0,0,0.1,0c0,0,0,0,0,0c0.2,0,0.4,0,0.5,0c0.2,0,0.4-0.1,0.7-0.2c0,0,0.1,0,0.1,0
	c0.2-0.1,0.4-0.2,0.6-0.3c0,0,0,0,0,0c1.7-1.1,2.9-3.8,3.4-7.2c1.7,2.5,3.7,4,5.6,3.7c3.7-0.6,5.6-7.4,4.2-15.2
	C313.5,391.6,313.2,390.5,312.9,389.4z M368.9,349.7c-15.2,13-33.3,25.5-50.8,36.4c-2.3-6.8-6.8-12.4-12.9-12.4c-0.5,0-1,0-1.5,0.1
	c-1.1,0.2-3,0.7-4.9,2.4c-1.4-0.7-2.9-1-4.4-1c-0.5,0-1.1,0-1.6,0.1c-2.1,0.4-3.9,1.3-5.4,2.9c-1.2-0.5-2.6-0.8-3.9-0.8
	c-0.5,0-1,0-1.5,0.1c-7.3,1.2-11.1,10.5-9.2,22.2c1.5,9,6.5,18.1,14.4,18.1c0.5,0,1,0,1.5-0.1c1.3-0.2,2.5-0.7,3.6-1.4
	c1.9,1.3,4,2,6.1,2c0.5,0,1.1,0,1.6-0.1c1.9-0.3,3.5-1.1,4.9-2.3c0.1,0.2,0.2,0.5,0.3,0.7c2.7,8.1-2.3,16.4-10.7,17.2
	c0.8,7.5-4.6,14.2-12.7,14.3c-5.7,0-10.7-2.8-14.9-6.7c-1.2,11.8-8.3,20.2-17,20.2c-8.7,0-15.8-8.5-17-20.2
	c-4.2,3.9-9.2,6.7-14.9,6.7c-8.1,0-13.5-6.8-12.7-14.3c-8.4-0.8-13.4-9.1-10.7-17.2c0.1-0.2,0.2-0.5,0.3-0.7c1.4,1.2,3,2,4.9,2.3
	c0.5,0.1,1.1,0.1,1.6,0.1c2.2,0,4.2-0.7,6.1-2c1.1,0.7,2.3,1.2,3.6,1.4c0.5,0.1,1,0.1,1.5,0.1c7.8,0,12.9-9.1,14.4-18.1
	c2-11.6-1.9-20.9-9.2-22.2c-0.5-0.1-1-0.1-1.5-0.1c-1.3,0-2.6,0.3-3.9,0.8c-1.5-1.5-3.3-2.5-5.4-2.9c-0.5-0.1-1.1-0.1-1.6-0.1
	c-1.5,0-3,0.4-4.4,1c-1.8-1.7-3.7-2.2-4.8-2.4c-0.5-0.1-1-0.1-1.5-0.1c-6.1,0-10.5,5.6-12.9,12.3c-17.4-10.9-35.5-23.4-50.7-36.3
	c2.4-1.8,5.1-5.2,8.9-11.1c3.2-5,6.4-10.8,9.3-16.9c5.8,3.3,26.7,14.7,27.3,15l3,1.3l7.9,3.3l2.7-8.2l1-3.1
	c0.6-1.7,13.3-41.6-1.8-74.8c-4.6-10.2-9.8-18.4-15.4-24.6c4.1,2.8,8.9,4.4,14,4.5c5.1-0.1,9.9-1.6,14.1-4.5
	c0.2,0.1,0.4,0.1,0.6,0.2c0.1-0.1,0.2-0.1,0.3-0.2c2.4,0.8,4.9,1.2,7.4,1.2c2.4,0,4.8-0.4,7.1-1.1c4-1.2,7.5-3.4,10.4-6.3
	c3.1,4.7,7.1,8.6,11.9,11.8c1.2,0.9,5.4,3.8,8.8,4.4c0.2,0,0.3,0.1,0.5,0.1c0.3,0,0.6,0.1,0.8,0.1h1.5l0.8-0.4
	c3.2-0.9,6.7-3.4,7.8-4.2c4.8-3.2,8.8-7.2,11.9-11.9c2.9,2.9,6.5,5.1,10.5,6.4c2.3,0.7,4.7,1.1,7.1,1.1c2.5,0,5-0.5,7.4-1.2
	c0.1,0.1,0.2,0.1,0.3,0.2c0.2-0.1,0.4-0.1,0.6-0.2c4.1,2.9,9,4.4,14.1,4.5c5.1-0.1,9.9-1.7,14-4.5c-5.6,6.2-10.8,14.4-15.4,24.6
	c-15.2,33.2-2.4,73.2-1.8,74.8l1,3.1l2.7,8.2l7.9-3.3l3-1.3c0.6-0.3,21.5-11.7,27.3-15c2.9,6.1,6.1,11.9,9.3,16.9
	C363.8,344.6,366.5,347.9,368.9,349.7z M166,340.9c-0.8-0.8-1.8-1.5-2.9-2c-3.2-1.7-8.1-2.5-11.2,0.4c-1.7,1.6-2.2,5,0.3,6.7
	c0.2,0.1,0.4,0.2,0.5,0.3c1.3,0.8,2.9,0.4,3.3-1c-0.2,0-0.3-0.1-0.4-0.2c0,0,0,0,0,0c-0.1,0-0.1,0-0.1,0c-0.9-0.7-0.3-2.6,1-3.4
	C158.3,340.6,161.1,339.7,166,340.9z M169.2,351.7c1.9-1.1,5-2,10.3-0.7c-0.9-0.9-1.9-1.6-3.1-2.2c-3.5-1.8-8.7-2.7-12.1,0.5
	c-1.9,1.7-2.4,5.4,0.3,7.2c0.2,0.1,0.4,0.2,0.6,0.3c1.4,0.8,3.1,0.4,3.5-1.1c-0.2,0-0.3-0.1-0.5-0.2c0,0,0,0,0-0.1
	c-0.1,0-0.1,0-0.2,0C167.2,354.6,167.8,352.5,169.2,351.7z M196.4,361.2c-1.1-1.2-2.5-2.1-4.1-2.9c-4.6-2.4-11.5-3.5-16,0.6
	c-2.5,2.3-3.1,7.1,0.4,9.5c0.2,0.2,0.5,0.3,0.8,0.4c1.8,1.1,4.1,0.5,4.7-1.5c-0.2,0-0.5-0.1-0.6-0.2c0,0,0,0,0-0.1
	c-0.1,0-0.1,0-0.2-0.1c-1.3-1-0.4-3.8,1.5-4.8C185.4,360.8,189.4,359.5,196.4,361.2z M255.2,269.5c2.4,8.6,8.3,15.4,16,18.2
	c2,0.7,3.8,0.7,5.8-0.1c3.9-1.5,9.7-6.8,10.8-10.7c0.3-1.1,0.3-1.9-0.1-2.4c-0.8-1.1-3.2-1.3-5.8-1.5c-0.9-0.1-1.9-0.1-2.9-0.3
	c-10.1-1.2-15.3-4.3-22.2-13.2c-0.9-1.2-1.7-2.4-2.4-3.5c-0.3-0.5-0.6-0.9-0.8-1.3C253.5,260.2,254.1,265.2,255.2,269.5z
	 M275.4,302.9c-2.2,0-4,1.8-4,4s1.8,4,4,4s4-1.8,4-4S277.6,302.9,275.4,302.9z M260.5,306.4c1.3-2.2,2.4-4.7,2.7-7.7l0,0
	c0-0.3,0.1-0.7,0.1-1c0-0.1,0-0.2,0-0.3c0-0.1,0-0.3,0-0.4c-0.1-4.7-3.4-8.5-7.3-8.4c-2.6,0-3.2,1.4-6.1,1.4c-2.8,0-3.4-1.4-6.1-1.4
	c-3.9-0.1-7.2,3.6-7.3,8.4c0,0.1,0,0.3,0,0.4c0,0.1,0,0.2,0,0.3c0,0.3,0,0.7,0.1,1l0,0c0.4,2.9,1.4,5.5,2.7,7.7
	c1.4,2.5,3.6,5.2,6.9,7.4c1.9,1.4,3.5,2,3.7,2c0.1,0.1,1.8-0.6,3.7-2C256.9,311.6,259.1,308.9,260.5,306.4z M253.9,370.9
	c-2.5-8.9-3.5-9.5-4-19.7c-0.5,10.2-1.5,10.8-4,19.7c-1.3,4.7,1,8.8,4,8.8C253,379.7,255.3,375.6,253.9,370.9z M231.4,345.5
	c-1.1,4.5,1.2,8.2,4,8.1c2.9-0.1,5.2-3.2,4.7-7.7c-0.9-8.8-2.4-12.8-7.2-20.3C235.3,334.1,233.5,337.1,231.4,345.5z M264.4,353.7
	c2.9,0.1,5.1-3.7,4-8.1c-2.1-8.4-3.9-11.4-1.6-19.9c-4.8,7.4-6.2,11.5-7.2,20.3C259.2,350.5,261.6,353.6,264.4,353.7z M246.3,278.2
	c0,2,1.6,3.7,3.7,3.7s3.7-1.6,3.7-3.7s-1.6-3.7-3.7-3.7S246.3,276.2,246.3,278.2z M243,259.6c-6.9,8.9-12.1,12-22.2,13.2
	c-1,0.1-1.9,0.2-2.9,0.3c-2.6,0.2-5,0.4-5.8,1.5c-0.4,0.5-0.4,1.3-0.1,2.4c1,3.9,6.9,9.3,10.8,10.7c2,0.8,3.9,0.8,5.8,0.1
	c7.7-2.7,13.6-9.5,16-18.2c1.2-4.3,1.7-9.3,1.6-14.8c-0.3,0.4-0.6,0.9-0.8,1.3C244.6,257.2,243.9,258.4,243,259.6z M224.4,302.9
	c-2.2,0-4,1.8-4,4s1.8,4,4,4s4-1.8,4-4S226.6,302.9,224.4,302.9z M202.1,262.4c3.1,2.9,8.4,4.6,14.5,4.6c0,0,0,0,0,0
	c5,0,10-1.1,13.6-3c4.8-2.5,9.4-6.9,12-11.4c0-0.1,0.1-0.1,0.1-0.2c-1.7,1.7-4.6,3.8-10.4,4.3c-0.6,0-1.2,0.1-1.8,0.1
	c-4.2,0-7.9-1.2-10.6-3.3c-1.3-1.1-2.5-2.4-3.6-3.7c-1.6-1.8-3-3.5-4.9-4.5c-0.8-0.4-1.7-0.6-2.6-0.6c-2.7,0-5.4,1.7-6.9,3.4
	C197.7,252.7,197.8,258.4,202.1,262.4z M209.2,305.9c1,8.7-1.3,11.4-4.7,19.3c-1.8,4.2-0.2,8.3,2.7,8.7c2.8,0.4,5.6-2.3,5.9-6.9
	C213.5,318.3,212.7,314,209.2,305.9z M230.6,416.3c-0.2,0.3-0.4,0.6-0.5,1c-1.7,2.9-3.9,4.6-7,6.1c-2.8,1.4-6.6,2.8-7.6,6.1
	c-0.9,2.9,1.2,5.8,4.3,5.7c3.9-0.1,6.8-4.3,8.3-7.5c1.5-3.2,2.1-6.7,2.4-10.2L230.6,416.3z M255.9,441.6c-3.8-8.9-5.3-9.5-6-19.7
	c-0.8,10.2-2.2,10.8-6,19.7c-2,4.7,1.4,8.8,6,8.8C254.5,450.4,258,446.3,255.9,441.6z M269.8,417.2c-0.2-0.3-0.4-0.6-0.5-1l0.1,1.2
	c0.3,3.5,0.9,7,2.4,10.2c1.5,3.2,4.4,7.3,8.3,7.5c3.1,0.1,5.1-2.8,4.3-5.7c-1-3.3-4.7-4.8-7.6-6.1
	C273.7,421.8,271.5,420.1,269.8,417.2z M284.1,345c-0.1-0.1-0.1-0.3-0.2-0.4c-1-2.8-1.8-5.7-2.5-8.5c-2.8,27.1-18.9,45.1-27.8,55
	c-1.4,1.6-2.7,3-3.7,4.3c-1-1.2-2.3-2.6-3.7-4.3c-8.9-9.9-24.9-27.9-27.8-55c-0.7,2.9-1.5,5.7-2.5,8.6c-0.1,0.1-0.1,0.3-0.2,0.4
	c5,23.6,19.2,39.5,27.5,48.8c2.2,2.5,4,4.4,5.1,6l1.6,2.3l1.6-2.3c1.1-1.6,2.9-3.5,5.1-6C264.9,384.5,279.1,368.5,284.1,345z
	 M292.7,326.6c-3.4-8-5.7-10.6-4.7-19.3c-3.5,8.1-4.3,12.4-3.8,21.2c0.3,4.6,3.1,7.3,5.9,6.9C292.9,334.9,294.6,330.9,292.7,326.6z
	 M298.2,248c-1.5-1.7-4.1-3.4-6.9-3.4c-0.9,0-1.8,0.2-2.6,0.6c-1.9,1-3.3,2.7-4.9,4.5c-1.1,1.3-2.3,2.6-3.6,3.7
	c-2.6,2.1-6.4,3.3-10.6,3.3c-0.6,0-1.2,0-1.8-0.1c-5.8-0.5-8.6-2.6-10.4-4.3c0,0.1,0.1,0.1,0.1,0.2c2.6,4.5,7.2,8.9,12,11.4
	c3.6,1.9,8.6,3,13.6,3c6.1,0,11.4-1.7,14.5-4.6C302,258.3,302.2,252.6,298.2,248z M323.7,359c-4.5-4.1-11.3-3-16-0.6
	c-1.6,0.7-3,1.7-4.1,2.9c7-1.7,11-0.5,13.5,1c1.9,1.1,2.7,3.8,1.5,4.8c-0.1,0-0.1,0-0.2,0.1c0,0,0,0,0,0.1c-0.2,0.1-0.4,0.2-0.6,0.2
	c0.5,2,2.9,2.6,4.7,1.5c0.3-0.1,0.5-0.2,0.8-0.4C326.8,366.1,326.2,361.3,323.7,359z M335.7,349.3c-3.4-3.1-8.6-2.3-12.1-0.5
	c-1.2,0.5-2.3,1.3-3.1,2.2c5.3-1.3,8.4-0.4,10.3,0.7c1.4,0.8,2.1,2.9,1.1,3.7c-0.1,0-0.1,0-0.2,0c0,0,0,0,0,0.1
	c-0.1,0.1-0.3,0.1-0.5,0.2c0.4,1.5,2.2,1.9,3.5,1.1c0.2-0.1,0.4-0.2,0.6-0.3C338.1,354.7,337.6,351.1,335.7,349.3z M348.1,339.3
	c-3.1-2.9-7.9-2.1-11.2-0.4c-1.1,0.5-2.1,1.2-2.9,2c4.9-1.2,7.7-0.3,9.5,0.7c1.3,0.7,1.9,2.7,1,3.4c0,0-0.1,0-0.1,0c0,0,0,0,0,0
	c-0.1,0.1-0.3,0.1-0.4,0.2c0.4,1.4,2,1.8,3.3,1c0.2-0.1,0.4-0.2,0.5-0.3C350.3,344.3,349.8,340.9,348.1,339.3z M249.9,468.3
	c-2.3,0-4.2,1.9-4.2,4.2s1.9,4.2,4.2,4.2c2.3,0,4.2-1.9,4.2-4.2S252.3,468.3,249.9,468.3z M320,150.5c0,5.4-4.4,9.8-9.8,9.8
	c-5.4,0-9.8-4.4-9.8-9.8c0-4.9,3.6-8.9,8.3-9.6c-2.6-0.8-5.4-1.3-8.3-1.3c-15,0-27.2,12.2-27.2,27.2s12.2,27.2,27.2,27.2
	c13,0,23.9-9.1,26.5-21.3c-0.9,0.8-2,1.3-3.3,1.3c-2.7,0-4.9-2.2-4.9-4.9c0-2.7,2.2-4.9,4.9-4.9c1.6,0,3.1,0.8,3.9,2
	c-0.1-7.4-3.3-14.1-8.2-18.9C319.8,148.3,320,149.4,320,150.5z M360,136.6l2.8-1.2l-1.5,2.6c-3.5,6.2-11,8.9-18.5,11
	c0.2,0.5,0.3,0.9,0.5,1.4l1,3.7l0.6,3.9c0.1,0.4,0.1,0.7,0.1,1c0,0.2,0,0.3,0,0.5l0.2,3c-0.1,4.4-0.7,8.5-1.8,12
	c-1.3,4-3.1,7.7-5.3,10.8c-2.4,3.4-5.1,6.3-8,8.6c-0.5,0.4-1,0.8-1.5,1.1c-0.3,0.2-0.5,0.4-0.8,0.6l-0.4,0.3
	c-0.3,0.2-0.5,0.4-0.8,0.6l-1.3,0.7c-0.3,0.2-0.6,0.3-0.8,0.5c-0.5,0.3-1.1,0.6-1.7,0.9l-2.6,1.1c-3,1.2-5.7,2-8.3,2.4
	c-2.7,0.6-5.4,0.8-8.2,0.8c-22.3,0-40.4-18.1-40.4-40.4c0-4.2,0.6-8.3,1.9-12.3l0-0.1c0-0.3,0.1-0.6,0.1-0.9
	c0.1-1.3,0.3-2.7,0.8-4.3l0.4-1.5l0.6-1.6c0.2-0.5,0.4-1.1,0.6-1.7l0.9-1.7c1.1-2.2,2.7-4.5,4.9-6.9c2-2.1,4.4-4.1,7.2-5.9
	c2.7-1.7,5.7-3.2,8.7-4.4c2.7-1.1,5.7-2.2,9.2-3.3c3.3-1,6.4-1.8,9.2-2.6c1.1-0.3,2.3-0.6,3.4-0.9c1.8-0.5,3.6-0.9,5.4-1.4
	c2.9-0.8,5.5-1.6,7.9-2.5c1.4-0.5,2.5-0.9,3.5-1.4c0.9-0.3,1.8-0.8,2.6-1.1l0.7-0.3c0.6-0.3,1.2-0.6,1.8-0.9
	c0.4-0.2,0.7-0.4,1.1-0.6c0.5-0.3,1-0.6,1.5-0.9c0.3-0.2,0.7-0.4,1-0.7c1.5-1.1,2.8-2.1,3.7-3c0.8-0.7,1.4-1.3,1.9-1.9
	c0.1-0.2,0.3-0.3,0.4-0.4l2.8-2.9l-1.6,3.7c-0.1,0.2-0.2,0.4-0.3,0.6c-0.3,0.6-0.7,1.5-1.3,2.4c-0.1,0.2-0.3,0.4-0.4,0.6
	c-0.3,0.4-0.6,0.9-0.9,1.4l-0.2,0.2c-0.5,0.6-1,1.3-1.6,2l-0.5,0.6c-0.6,0.6-1.1,1.2-1.8,1.8l-1.3,1.1c-0.6,0.5-1,0.9-1.5,1.2
	c-1,0.7-2.1,1.5-3.3,2.2c-1,0.7-2.2,1.3-3.3,1.9l-0.3,0.2c-2.6,1.3-5.3,2.5-8.2,3.6c-2.4,0.9-5.1,1.8-8.3,2.8
	c0.5,0.1,1.1,0.2,1.6,0.3c2.5,0.4,5.2,1.2,8.1,2.3l2.6,1.2c0.6,0.3,1.1,0.6,1.7,0.9c0.3,0.2,0.6,0.3,0.8,0.5l1.2,0.7l0.8,0.6
	c8.9-3,17.7-15.6,20.6-21.4l1.4-2.7l0.5,3c1.5,8.7-2.8,17-8,24.8c5.6-2,11.1-5.8,13.7-8l2.3-2l-0.7,3c-1.4,6.2-6.2,10.7-11.1,14.2
	C351.3,139.7,357.2,137.9,360,136.6z M339.6,162.4l-0.1-2.7c0-0.5,0-1-0.1-1.4l-0.2-1.3l-0.2-1.3l-0.1-0.6l-0.2-0.6l-0.6-2.6
	c-0.2-0.8-0.6-1.7-0.9-2.5c-0.2-0.4-0.3-0.8-0.5-1.2l-0.6-1.2l-0.5-1.2c-0.2-0.4-0.4-0.8-0.6-1.2l-1.3-2.3c-1.9-2.9-4.2-5.6-6.8-7.9
	c-0.6-0.6-1.3-1.1-2-1.6l-1-0.8l-1.1-0.7c-0.7-0.4-1.4-1-2.2-1.4c-0.8-0.4-1.5-0.8-2.3-1.2c-2.6-1.2-5.2-2.2-7.9-2.8
	c-2.2-0.4-4.6-0.7-6.9-0.7c-2.2,0-4.3,0.2-6.4,0.6c-1.8,0.6-3.5,1.2-5.3,1.8c-2.8,1-5.5,2.2-8,3.4c-0.3,0.2-0.7,0.4-1,0.6
	c-9.8,6.6-16.3,17.9-16.3,30.6c0,20.4,16.6,36.9,36.9,36.9c2.3,0,4.5-0.2,6.7-0.6c2.8-0.6,5.5-1.6,8.2-2.8c0.7-0.4,1.5-0.8,2.3-1.2
	c0.7-0.4,1.4-0.9,2.2-1.4l1.1-0.7l1-0.8c0.7-0.5,1.4-1,2-1.6c2.6-2.3,4.8-5,6.8-7.9l1.3-2.3c0.5-0.7,0.8-1.6,1.1-2.4l0.6-1.2
	c0.2-0.4,0.3-0.8,0.5-1.2c0.3-0.8,0.6-1.6,0.9-2.5C339.1,169.4,339.5,165.9,339.6,162.4z M365.2,185.3c0,0-0.1,0-0.1,0
	c1.1,2,1.7,4.2,1.7,6.6c0,3.6-1.4,7-3.9,9.6c-2.5,2.6-5.9,4-9.5,4c0,0,0,0,0,0c-1.9,0-3.7-0.4-5.3-1.1c0,5.4-3.3,10.6-8.6,12.7
	c-1.6,0.6-3.2,0.9-4.8,0.9c-3.7,0-7.2-1.5-9.7-4.1c-0.6,2-1.7,3.8-3.2,5.3c-2.5,2.6-5.9,4-9.5,4c0,0,0,0-0.1,0c-3.6,0-7-1.4-9.5-3.9
	c-1.2-1.2-2.1-2.5-2.7-3.9c-1.1,1.2-2.4,2.3-3.9,3c-2,1-4.1,1.6-6.3,1.6c-1.3,0-2.7-0.2-4-0.6c-3.4-1.1-6.3-3.4-7.9-6.6
	c-1.5-2.8-1.9-6-1.3-9c-1.4-0.8-2.8-1.7-4.2-2.6c0,0.5-0.1,1-0.1,1.6l0.1,0c-0.6,4.9-2.3,9.1-4.6,12.8c-2.4,4.2-6,8.7-11.5,12.3
	c-3.2,2.4-5.9,3.4-6.1,3.3c-0.2,0.1-2.9-0.9-6.1-3.3c-5.5-3.6-9.1-8.1-11.5-12.3c-2.2-3.6-4-7.9-4.6-12.8l0,0
	c-0.1-0.5-0.1-1.1-0.1-1.6c-1.3,0.9-2.7,1.8-4.2,2.6c0.6,3.1,0.2,6.2-1.3,9c-1.7,3.2-4.5,5.5-7.9,6.6c-1.3,0.4-2.7,0.6-4,0.6
	c-2.2,0-4.3-0.5-6.3-1.6c-1.5-0.8-2.8-1.8-3.9-3c-0.7,1.4-1.6,2.8-2.7,3.9c-2.5,2.5-5.9,3.9-9.5,3.9c0,0,0,0-0.1,0
	c-3.6,0-7-1.4-9.5-4c-1.5-1.5-2.6-3.3-3.2-5.3c-2.5,2.6-6.1,4.1-9.7,4.1c-1.6,0-3.2-0.3-4.8-0.9c-5.4-2.1-8.7-7.2-8.6-12.7
	c-1.7,0.7-3.5,1.1-5.3,1.1c0,0,0,0,0,0c-3.6,0-7-1.4-9.5-4c-2.5-2.6-3.9-5.9-3.9-9.6c0-2.4,0.6-4.6,1.7-6.6c0,0-0.1,0-0.1,0
	c-1.6,0-3.2-0.3-4.8-0.9c-3.4-1.3-6-3.8-7.5-7.1c-2.4-5.4-1-11.6,3.1-15.4c-1.8-0.5-3.5-1.3-4.9-2.5c-2.8-2.2-4.6-5.4-5-9
	c-0.4-3.6,0.6-7.1,2.8-9.9c1-1.2,2.1-2.2,3.4-3c-1.2-0.9-2.3-1.9-3.3-3.2c-2.1-2.9-3-6.5-2.4-10.1c0.6-3.6,2.5-6.7,5.4-8.8
	c1-0.7,2-1.3,3.1-1.7c-0.9-1.1-1.7-2.4-2.2-3.8c-1.5-3.6-1.5-7.6,0.1-11.2c1.5-3.6,4.4-6.4,8-7.9c2.7-1.1,5.5-1.4,8.3-0.8
	c0.4-2.6,1.6-5,3.4-7c2.5-2.6,5.8-4.2,9.4-4.3c3.6-0.1,7,1.1,9.7,3.6c1.4,1.3,2.5,2.9,3.3,4.7c0.7-1.1,1.6-2.1,2.6-2.9
	c2.7-2.4,6.2-3.5,9.8-3.2c3.6,0.3,6.9,1.9,9.2,4.7c1.3,1.5,2.2,3.2,2.7,5c0.9-1.2,2-2.2,3.3-3c2.7-1.7,5.9-2.2,9-1.5
	c3.1,0.7,5.7,2.6,7.4,5.3c0.3,0.4,0.5,0.9,0.7,1.4c0.5-0.3,1-0.6,1.5-0.8c2.9-1.3,6.1-1.3,9.1-0.1c2.9,1.2,5.3,3.4,6.5,6.4
	c0.6,1.5,1,3.1,1,4.7c3.1-1.2,6.8-0.9,9.8,1.1c2.3,1.6,3.8,4,4.2,6.7c0.4,2.3,0,4.6-1.1,6.6c0.7,0.8,1.4,1.7,1.9,2.5l0.7,1l0.4,0.6
	l0.3,0.6c0.5,0.7,0.9,1.5,1.3,2.2c1.6,3,2.8,6.1,3.7,9.3c0.6,1.9,1,3.8,1.4,5.8c0.4-1.9,0.8-3.8,1.4-5.8c0.9-3.1,2.1-6.2,3.7-9.3
	c0.4-0.8,0.8-1.5,1.3-2.2l0.3-0.6l0.4-0.6l0.7-1c0.5-0.8,1.2-1.6,1.9-2.5c-1.1-2-1.5-4.3-1.1-6.6c0.5-2.7,2-5.1,4.2-6.7
	c3-2.1,6.6-2.4,9.8-1.1c0-1.6,0.3-3.2,1-4.7c1.3-2.9,3.6-5.2,6.5-6.4c2.9-1.2,6.2-1.1,9.1,0.1c0.5,0.2,1,0.5,1.5,0.8
	c0.2-0.5,0.5-0.9,0.7-1.4c1.7-2.7,4.3-4.6,7.4-5.3c3.1-0.7,6.3-0.2,9,1.5c1.3,0.8,2.4,1.8,3.3,3c0.5-1.8,1.4-3.5,2.7-5
	c2.4-2.7,5.6-4.4,9.2-4.7c3.6-0.3,7.1,0.9,9.8,3.2c1,0.9,1.9,1.9,2.6,2.9c0.7-1.7,1.8-3.3,3.3-4.7c2.6-2.5,6.1-3.7,9.7-3.6
	c3.6,0.1,6.9,1.7,9.4,4.3c1.8,2,3,4.4,3.4,7c2.8-0.5,5.6-0.3,8.3,0.8c3.6,1.5,6.5,4.3,8,7.9c1.5,3.6,1.6,7.6,0.1,11.2
	c-0.6,1.4-1.3,2.7-2.2,3.8c1.1,0.4,2.1,1,3.1,1.7c2.9,2.1,4.8,5.2,5.4,8.8c0.6,3.6-0.3,7.1-2.4,10.1c-0.9,1.3-2,2.3-3.3,3.2
	c1.3,0.8,2.4,1.8,3.4,3c2.2,2.8,3.2,6.4,2.8,9.9c-0.4,3.6-2.2,6.8-5,9c-1.5,1.2-3.2,2-4.9,2.5c4.1,3.8,5.5,10,3.1,15.4
	c-1.5,3.3-4.1,5.8-7.5,7.1C368.4,185,366.8,185.3,365.2,185.3z M241.5,179.4c0.5-1.1,0.9-2.2,1.3-3.4c0.4-1.2,0.7-2.4,1.1-3.6
	c0.3-1.2,0.7-2.5,0.9-3.8c0.6-2.6,0.8-5.3,1.1-8c0.2-2.8,0.2-5.6,0.1-8.4c-0.1-2.9-0.4-5.8-0.9-8.6c-0.5-2.9-1.2-5.8-2.1-8.6
	c-0.9-2.8-2-5.6-3.4-8.1c-0.3-0.7-0.7-1.3-1.1-1.9l-0.3-0.5l-0.3-0.4l-0.7-1c-0.9-1.4-1.9-2.3-2.8-3.5c-3.9-4.4-8.9-8-14.1-10.8
	l-2-1c-0.7-0.3-1.3-0.7-2-1c-1.4-0.6-2.7-1.2-4.1-1.8c-1.4-0.5-2.8-1-4.2-1.5c-0.7-0.2-1.4-0.5-2.1-0.7c-0.7-0.2-1.4-0.4-2.1-0.6
	c-1.4-0.4-2.8-0.8-4.1-1.2c-1.4-0.3-2.8-0.7-4.1-1c-1.4-0.3-2.7-0.7-4.1-1c-1.4-0.3-2.7-0.5-4-0.8c-1.3-0.3-2.6-0.5-3.9-0.8
	c-1.3-0.2-2.6-0.4-3.8-0.6c-2.5-0.4-4.9-0.9-7.3-1.1c-2.1-0.3-4.2-0.5-6.2-0.7c-4.3-0.3-8.8-0.5-13.4-0.6c-1.7,0-3.5,0-5.2,0.1
	l-5.5,0.1c-1.9,5.1-3.9,10.1-5.6,15.2c-1.8,5.4-3.3,10.9-4.4,16.5c-0.2,1.4-0.6,2.8-0.7,4.2l-0.5,4.2l-0.3,4.2l-0.1,1.1l0,1.1l0,2.1
	l0,2.1c0,0.7,0.1,1.4,0.2,2.1c0.1,1.4,0.2,2.8,0.3,4.2c0.4,2.8,0.7,5.5,1.5,8.2c0.5,2.7,1.5,5.4,2.4,8l0.2,0.5l0.1,0.2l0,0.1
	c0,0,0,0,0,0l0,0.1l0.4,1l0.8,2c0.6,1.3,1.1,2.5,1.7,3.7c2.5,4.9,5.5,9.6,9.3,13.7c3.7,4.1,8,7.7,12.7,10.6c2.4,1.4,4.8,2.7,7.4,3.8
	c1.3,0.6,2.6,1,3.9,1.5c0.7,0.2,1.3,0.4,2,0.6c0.7,0.2,1.3,0.4,2,0.6c2.7,0.8,5.4,1.2,8.2,1.7c2.8,0.3,5.6,0.5,8.4,0.5
	c5.6-0.1,11.3-0.8,16.7-2.2c1.4-0.4,2.7-0.7,4.1-1.2c1.2-0.4,2.3-0.8,3.5-1.2c0.4-0.2,0.9-0.3,1.3-0.5c3.8-1.7,7.1-3.7,10-5.8
	c1.1-6.1,5.3-10.7,10.4-11.4c0.6-1,1.2-2.1,1.7-3.2c0.3-0.5,0.5-1,0.8-1.6C241.1,180.5,241.3,180,241.5,179.4z M257.8,185.9
	c-0.4-0.6-0.7-1.1-1.1-1.7c-2.5-4.2-4.7-9.2-6.1-14.6c-0.3-1.1-0.6-2.3-0.8-3.5c-0.2,1.2-0.5,2.3-0.8,3.5
	c-1.3,5.5-3.5,10.4-6.1,14.6c-0.3,0.6-0.7,1.1-1.1,1.7c2.7,0.6,4.1,2.1,7.9,2.1C253.8,188,255.1,186.6,257.8,185.9z M367,159.5
	c0.7-2.7,1.1-5.5,1.5-8.2c0.2-1.4,0.2-2.8,0.3-4.2c0-0.7,0.1-1.4,0.2-2.1l0-2.1l0-2.1l0-1.1l-0.1-1.1l-0.3-4.2l-0.5-4.2
	c-0.1-1.4-0.5-2.8-0.7-4.2c-1-5.6-2.5-11.1-4.4-16.5c-1.7-5.1-3.7-10-5.6-15.2l-5.5-0.1c-1.7,0-3.4-0.1-5.2-0.1
	c-4.7,0.1-9.1,0.3-13.4,0.6c-2,0.2-4,0.5-6.2,0.7c-2.4,0.2-4.8,0.7-7.3,1.1c-1.3,0.2-2.5,0.4-3.8,0.6c-1.3,0.2-2.6,0.5-3.9,0.8
	c-1.3,0.3-2.7,0.5-4,0.8c-1.4,0.3-2.7,0.7-4.1,1c-1.4,0.3-2.7,0.7-4.1,1c-1.4,0.4-2.8,0.8-4.1,1.2c-0.7,0.2-1.4,0.4-2.1,0.6
	c-0.7,0.2-1.4,0.5-2.1,0.7c-1.4,0.5-2.8,1-4.2,1.5c-1.4,0.6-2.7,1.2-4.1,1.8c-0.7,0.3-1.3,0.6-2,1l-2,1c-5.2,2.9-10.2,6.4-14.1,10.8
	c-0.9,1.1-1.9,2.1-2.8,3.5l-0.7,1l-0.3,0.4l-0.3,0.5c-0.4,0.6-0.8,1.2-1.1,1.9c-1.4,2.5-2.5,5.3-3.4,8.1c-0.9,2.8-1.6,5.7-2.1,8.6
	c-0.5,2.9-0.8,5.8-0.9,8.6c-0.1,2.9,0,5.7,0.1,8.4c0.2,2.7,0.5,5.4,1.1,8c0.2,1.3,0.6,2.5,0.9,3.8c0.4,1.2,0.7,2.4,1.1,3.6
	c0.4,1.2,0.8,2.3,1.3,3.4c0.2,0.6,0.5,1.1,0.7,1.6c0.3,0.5,0.5,1,0.8,1.6c0.6,1.1,1.1,2.1,1.7,3.2c5.1,0.6,9.4,5.3,10.4,11.4
	c2.9,2.2,6.2,4.2,10,5.8c0.4,0.2,0.9,0.4,1.3,0.5c1.2,0.4,2.3,0.9,3.5,1.2c1.3,0.5,2.7,0.8,4.1,1.2c5.5,1.4,11.1,2.2,16.7,2.2
	c2.8,0,5.6-0.2,8.4-0.5c2.8-0.4,5.5-0.9,8.2-1.7c0.7-0.2,1.3-0.4,2-0.6c0.7-0.2,1.3-0.4,2-0.6c1.3-0.5,2.6-0.9,3.9-1.5
	c2.6-1.1,5-2.4,7.4-3.8c4.7-2.9,9-6.5,12.7-10.6c3.7-4.1,6.8-8.8,9.3-13.7c0.6-1.2,1.2-2.4,1.7-3.7l0.8-2l0.4-1l0-0.1c0,0,0,0,0,0
	l0-0.1l0.1-0.2l0.2-0.5C365.5,164.9,366.4,162.3,367,159.5z M218.9,150.5c0,5.4-4.4,9.8-9.8,9.8c-5.4,0-9.8-4.4-9.8-9.8
	c0-4.9,3.6-8.9,8.3-9.6c-2.6-0.8-5.4-1.3-8.3-1.3c-15,0-27.2,12.2-27.2,27.2s12.2,27.2,27.2,27.2c13,0,23.8-9.1,26.5-21.3
	c-0.9,0.8-2,1.3-3.3,1.3c-2.7,0-4.9-2.2-4.9-4.9c0-2.7,2.2-4.9,4.9-4.9c1.6,0,3.1,0.8,3.9,2c-0.1-7.4-3.3-14.1-8.2-18.9
	C218.7,148.3,218.9,149.4,218.9,150.5z M234.7,150.1c1.3,3.9,1.9,8.1,1.9,12.3c0,22.3-18.1,40.4-40.4,40.4c-2.8,0-5.5-0.3-8.2-0.8
	c-2.6-0.4-5.3-1.2-8.3-2.4l-2.6-1.2c-0.6-0.3-1.1-0.6-1.7-0.9c-0.3-0.2-0.6-0.3-0.8-0.5l-1.2-0.7c-0.3-0.2-0.6-0.4-0.8-0.6l-0.4-0.3
	c-0.3-0.2-0.5-0.4-0.8-0.6c-0.5-0.4-1-0.7-1.5-1.1c-2.9-2.3-5.6-5.2-8-8.6c-2.2-3.2-3.9-6.8-5.3-10.8c-1.1-3.6-1.7-7.6-1.8-12l0.2-3
	c0-0.2,0-0.3,0-0.5c0-0.3,0-0.6,0.1-1l0.6-3.8l1-3.7c0.2-0.5,0.3-0.9,0.5-1.4c-7.5-2.1-14.9-4.8-18.5-11l-1.5-2.6l2.8,1.2
	c2.8,1.2,8.7,3,14,3.3c-4.9-3.6-9.7-8-11.1-14.2l-0.7-3l2.3,2c2.5,2.2,8.1,6,13.7,8c-5.1-7.8-9.4-16.2-8-24.8l0.5-3l1.4,2.7
	c2.9,5.7,11.6,18.4,20.6,21.4l0.8-0.5l1.3-0.7c0.3-0.2,0.6-0.3,0.9-0.5c0.5-0.3,1.1-0.6,1.6-0.9l2.5-1.1c2.9-1.1,5.5-1.9,8.1-2.4
	c0.5-0.1,1.1-0.2,1.6-0.3c-3.2-1-5.9-1.9-8.3-2.8c-2.8-1-5.6-2.2-8.2-3.6l-0.3-0.2c-1.2-0.6-2.3-1.2-3.3-1.9
	c-1.2-0.7-2.2-1.5-3.2-2.2c-0.4-0.3-0.9-0.7-1.5-1.2l-1.3-1.1c-0.7-0.6-1.2-1.2-1.8-1.8l-0.5-0.5c-0.6-0.7-1.2-1.4-1.6-2l-0.2-0.2
	c-0.4-0.5-0.7-1-0.9-1.4c-0.1-0.2-0.3-0.4-0.4-0.6c-0.6-0.9-1-1.8-1.3-2.4c-0.1-0.2-0.2-0.4-0.3-0.6l-1.6-3.7l3.1,3.3
	c0.5,0.5,1.1,1.2,1.8,1.8c1,0.9,2.2,1.9,3.8,3c0.3,0.2,0.6,0.4,1,0.6c0.5,0.3,1,0.6,1.5,0.9c0.4,0.2,0.7,0.4,1.1,0.6
	c0.6,0.3,1.1,0.7,1.8,0.9l0.7,0.3c0.8,0.4,1.7,0.8,2.6,1.1c1.2,0.5,2.5,1,3.6,1.4c2.4,0.8,5,1.7,7.9,2.5c1.7,0.5,3.5,1,5.4,1.4
	c1.1,0.3,2.3,0.6,3.4,0.9c2.8,0.7,5.9,1.6,9.2,2.6c3.5,1.1,6.5,2.1,9.2,3.3c3,1.3,6,2.7,8.7,4.4c2.8,1.8,5.2,3.8,7.3,5.9
	c2.2,2.4,3.8,4.7,4.9,6.9l0.8,1.7c0.2,0.6,0.5,1.2,0.7,1.7l0.6,1.6l0.4,1.6c0.4,1.6,0.6,3,0.8,4.3c0,0.3,0.1,0.6,0.1,0.9
	C234.7,150,234.7,150.1,234.7,150.1z M233.1,162.4c0-12.7-6.5-23.9-16.3-30.6c-0.3-0.2-0.7-0.4-1-0.6c-2.5-1.2-5.2-2.4-8-3.4
	c-1.7-0.6-3.5-1.2-5.3-1.8c-2.1-0.4-4.2-0.6-6.4-0.6c-2.4,0-4.7,0.2-6.9,0.7c-2.7,0.6-5.4,1.6-7.9,2.8c-0.7,0.4-1.5,0.8-2.3,1.2
	c-0.7,0.4-1.4,0.9-2.2,1.4l-1.1,0.7l-1,0.8c-0.7,0.5-1.4,1-2,1.6c-2.6,2.3-4.8,5-6.8,7.9l-1.3,2.3c-0.2,0.4-0.4,0.8-0.6,1.2
	l-0.5,1.2l-0.6,1.2c-0.2,0.4-0.3,0.8-0.5,1.2c-0.3,0.8-0.6,1.6-0.9,2.5l-0.6,2.6l-0.2,0.6l-0.1,0.6l-0.2,1.3l-0.2,1.3
	c-0.1,0.4-0.1,0.9-0.1,1.4l-0.1,2.7c0.1,3.5,0.5,7,1.5,10.4c0.2,0.8,0.6,1.7,0.9,2.5c0.2,0.4,0.3,0.8,0.5,1.2l0.6,1.2
	c0.4,0.8,0.7,1.6,1.1,2.4l1.3,2.3c1.9,2.9,4.2,5.6,6.8,7.9c0.6,0.6,1.3,1.1,2,1.6l1,0.8l1.1,0.7c0.7,0.4,1.4,1,2.2,1.4
	c0.8,0.4,1.5,0.8,2.3,1.2c2.6,1.2,5.4,2.3,8.2,2.8c2.2,0.4,4.4,0.6,6.7,0.6C216.5,199.3,233.1,182.7,233.1,162.4z M366.7,78
	c14,4.1,15.8,16.6,17.5,27c6.1-17.6,5.2-22.9-0.8-37.3C380.2,74.1,375.4,77.3,366.7,78z M133.2,78c-8.7-0.8-13.5-4-16.7-10.3
	c-6,14.4-6.9,19.8-0.8,37.3C117.4,94.6,119.2,82.1,133.2,78z M407.4,74.2c2-1.2,2.7-3.8,1.5-5.8c-1.2-2-3.8-2.7-5.8-1.5
	c-2,1.2-2.7,3.8-1.5,5.8C402.8,74.7,405.4,75.4,407.4,74.2z M405.3,86.2c-2.4,1.4-3.2,4.5-1.7,6.9s4.5,3.2,6.9,1.7
	c2.4-1.4,3.2-4.5,1.7-6.9S407.6,84.8,405.3,86.2z M402.3,108.6c-2.7,1.6-3.6,5.1-2,7.9s5.1,3.6,7.9,2s3.6-5.1,2-7.9
	C408.5,107.9,405,107,402.3,108.6z M399.4,142c2.9-1.7,3.8-5.4,2.1-8.2c-1.7-2.9-5.4-3.8-8.2-2.1c-2.9,1.7-3.8,5.4-2.1,8.2
	C392.9,142.8,396.6,143.7,399.4,142z M399.1,56.3c1.7-1,2.3-3.2,1.3-4.9c-1-1.7-3.2-2.3-4.9-1.3c-1.7,1-2.3,3.2-1.3,4.9
	C395.2,56.7,397.4,57.3,399.1,56.3z M92.4,74.2c2,1.2,4.6,0.5,5.8-1.5c1.2-2,0.5-4.6-1.5-5.8c-2-1.2-4.6-0.5-5.8,1.5
	C89.8,70.4,90.4,73,92.4,74.2z M89.5,94.8c2.4,1.4,5.4,0.6,6.9-1.7s0.6-5.4-1.7-6.9c-2.4-1.4-5.4-0.6-6.9,1.7
	C86.3,90.4,87.1,93.4,89.5,94.8z M99.6,116.5c1.6-2.7,0.7-6.3-2-7.9c-2.7-1.6-6.3-0.7-7.9,2c-1.6,2.7-0.7,6.3,2,7.9
	S98,119.2,99.6,116.5z M98.3,133.8c-1.7,2.9-0.8,6.5,2.1,8.2c2.8,1.7,6.5,0.8,8.2-2.1c1.7-2.8,0.8-6.5-2.1-8.2
	C103.7,130,100,131,98.3,133.8z M100.8,56.3c1.7,1,3.9,0.5,4.9-1.3s0.5-3.9-1.3-4.9c-1.7-1-3.9-0.5-4.9,1.3
	C98.5,53,99,55.3,100.8,56.3z M249.9,84.9c4.3,0,7.9-3.5,7.9-7.9c0-4.3-3.5-7.9-7.9-7.9s-7.9,3.5-7.9,7.9
	C242.1,81.4,245.6,84.9,249.9,84.9z M123.3,26.9L123.3,26.9L123.3,26.9c5.6,15.1,18.3,20,33.8,20c10.6,0,22.4-2.2,34.2-5
	c13.5-3.2,27.9-4.1,38.8-4.1c9.6,0,16.5,0.7,17.7,1.1h4.3c1.2-0.5,8.1-1.2,17.7-1.1c10.9,0,25.3,1,38.8,4.1c11.8,2.8,23.7,5,34.2,5
	c15.4,0,28.1-4.9,33.8-20c3.4,5.4,13.7,39.4-13.2,39.5c-0.4,0-0.9,0-1.3,0c-7.5,16-69.8-14.7-111.5,47c-0.2,0.2-0.6,0.9-0.6,0.9
	s-0.5-0.7-0.7-0.9c-43.2-60.6-104-31-111.5-47c-0.4,0-0.9,0-1.3,0C109.6,66.3,119.8,32.3,123.3,26.9z M350.6,55.6
	c6.1-1,8,0.5,13.8,2.7c3,1.1,5.9-0.1,6-2.2c0.2-2-1.8-3.9-5-3.9C359.1,52.2,356.1,52.9,350.6,55.6z M327.8,57.4
	c6.4,0.2,8.1,2.2,13.5,5.5c2.9,1.8,6,1,6.6-1c0.6-2-1.1-4.3-4.4-5C337.2,55.6,334,55.7,327.8,57.4z M303.5,60
	c6.4-0.3,8.2,1.5,13.7,4.4c3,1.5,6,0.5,6.4-1.5c0.4-2-1.4-4.2-4.7-4.6C312.6,57.5,309.5,57.8,303.5,60z M236.8,77.1
	c-1.1,2.3-1.1,5.1,0.3,7.4s3.7,3.8,6.3,4c1.4,2.1,3.9,3.4,6.6,3.4s5.1-1.4,6.6-3.4c2.5-0.2,4.9-1.6,6.3-4c1.4-2.4,1.4-5.1,0.3-7.4
	c1.1-2.3,1.1-5.1-0.3-7.4c-1.4-2.4-3.7-3.8-6.3-4c-1.4-2.1-3.9-3.4-6.6-3.4c-2.7,0-5.1,1.4-6.6,3.4c-2.5,0.2-4.9,1.6-6.3,4
	C235.7,72,235.7,74.8,236.8,77.1z M176.2,62.8c0.4,2,3.4,3,6.4,1.5c5.6-2.9,7.4-4.6,13.7-4.4c-6-2.1-9.1-2.5-15.5-1.7
	C177.6,58.7,175.8,60.8,176.2,62.8z M152,61.9c0.6,2,3.7,2.8,6.6,1c5.4-3.3,7.1-5.3,13.5-5.5c-6.2-1.7-9.4-1.8-15.7-0.5
	C153.1,57.6,151.5,59.9,152,61.9z M129.5,56.1c0.2,2,3,3.3,6,2.2c5.7-2.1,7.7-3.7,13.8-2.7c-5.6-2.7-8.5-3.4-14.7-3.4
	C131.3,52.2,129.3,54.1,129.5,56.1z M249.9,31.7c2.3,0,4.2-1.9,4.2-4.2s-1.9-4.2-4.2-4.2c-2.3,0-4.2,1.9-4.2,4.2
	S247.6,31.7,249.9,31.7z M156.7,40.8c5.3-0.2,10.2-1.9,15.1-4l1.6-0.7c-0.5,0-1.1,0-1.6,0c-5.1-0.2-8.8-1.9-12.9-4.9
	c-3.8-2.8-8.2-6.7-13.3-5.7c-4.4,0.9-6.8,5.6-4.5,9.6C144,40.2,151.5,41.1,156.7,40.8z M343.1,40.8c5.2,0.2,12.7-0.6,15.6-5.7
	c2.3-4,0-8.7-4.5-9.6c-5.1-1-9.6,2.9-13.3,5.7c-4,3-7.8,4.7-12.9,4.9c-0.5,0-1.1,0-1.6,0l1.6,0.7C332.9,39,337.8,40.6,343.1,40.8z
	 M224.4,453.4c-3.3,0-6,2.7-6,6c0,3.3,2.7,6,6,6s6-2.7,6-6C230.4,456.1,227.7,453.4,224.4,453.4z M275.4,453.4c-3.3,0-6,2.7-6,6
	c0,3.3,2.7,6,6,6s6-2.7,6-6C281.4,456.1,278.8,453.4,275.4,453.4z M425.4,268.6c-11.1,46.9-38.4,76.1-42,77.6c-0.1,0-0.2,0-0.2,0
	c-2.8,0-18.1-16.9-29.5-39.1c-15.8,12.2-32.3,17.9-33,18.1l-3.4,1.2l-0.9-3.5c-0.4-1.6-9.8-40.3,6.6-70.3
	c10.1-18.4,21.1-29.1,32.9-31.7c6.2-4.9,13.4-7,20.3-9c13.2-3.8,24.7-7.1,25.9-29.1c0.1-1.3,0.7-1.5,1.1-1.5c1.2,0,3,1.9,4.2,3.5
	C416.6,196.4,433.7,233.5,425.4,268.6z M408.8,224.8l0.1,0.6c0,0.2,0,0.2,0,0.4l0,0.1l0.2,0.6c0.1,0.4,0.3,0.9,0.5,1.5
	c0.5,1.3,1.2,2.6,1.9,3.8c0.4,0.7,0.8,1.4,1.3,2.1l0.3,0.4c0.4,0.6,0.8,1.1,1.2,1.6c0.6,0.7,1.1,1.4,1.7,2c0.4,0.4,0.8,0.8,1.1,1.2
	c0.2,0.2,0.5,0.4,0.7,0.7c0.3,0.3,0.6,0.5,1,0.8c-0.8-8-2.5-16.3-5.3-24.6c-1-2.9-2.1-5.8-3.3-8.7c0.2,3.3,0.2,6.2-0.1,9.1
	C409.8,218.8,409.4,221.6,408.8,224.8z M373.4,221.6c0,0,0.1,0.1,0.1,0.1c0.4,0.6,0.8,1.1,1.4,1.5c0.7,0.6,1.4,1,2.2,1.4
	c0.9,0.5,2,0.9,2.8,1.2c2.1,0.7,4.4,1.1,6.5,1.2c1.1,0.1,2.3,0,3.3,0c1.1-0.1,2.1-0.2,2.9-0.5c1-0.2,1.8-0.6,2.5-0.8
	c0.7-0.4,1.3-0.7,1.6-1c0.3-0.2,0.6-0.5,0.8-0.7c0.1-0.3,0.2-0.5,0.3-0.8l0.1-0.3c0.1-0.2,0.2-0.5,0.3-0.7l0.2-0.4
	c0.3-0.7,0.6-1.5,0.8-2.2l0.9-2.6c0.1-0.4,0.3-0.8,0.4-1.2c0.1-0.5,0.3-0.9,0.4-1.3c0.9-2.7,1.4-5.4,1.9-7.5
	c-6.5,8-15.9,10.7-24.1,13C376.7,220.6,375,221.1,373.4,221.6z M389.1,235.6c-1.3-0.2-2.8-0.6-4.3-1.1c-0.3-0.1-0.7-0.2-1-0.3
	c1.2,2.4,2.1,5,2.6,7.9l0.2-0.1c0.2-0.1,0.5-0.2,0.7-0.3c0.3-0.1,0.6-0.3,0.9-0.5c0.2-0.1,0.5-0.2,0.7-0.4c0.3-0.2,0.6-0.3,0.8-0.5
	l2.2-4.4C390.9,235.9,390,235.7,389.1,235.6z M363.5,230.5c0.8,2.2,2.4,3.9,4.5,4.9c2.7,1.3,6,1,8.5-0.6c-1.6-2.2-3.7-4-6.2-5.4
	c-2.3-1.3-4.7-2-7.2-2.3C363,228.2,363.1,229.4,363.5,230.5z M355.9,258.8c2.8,1.3,6,1.5,8.9,0.4c2.2-0.8,4-2.1,5.4-4
	c-2.9-1.7-5.2-4.3-6.3-7.5c-0.3-1-0.6-2-0.7-3c-1,0.7-2,1.2-3.1,1.6c-1.9,0.7-3.9,1-5.9,0.8c-1.6-0.1-3.2-0.5-4.8-1.2
	c-0.4,2.1-0.3,4.3,0.5,6.3C350.9,255.1,353,257.5,355.9,258.8z M350.3,273.4c-0.5-1.4-0.8-2.9-0.9-4.3c-3.1,2.3-7.1,3.5-11,3.2
	c-0.9-0.1-1.8-0.2-2.7-0.4c-0.5,2.1-0.3,4.3,0.4,6.4c1.1,2.9,3.2,5.3,6,6.6c2.8,1.3,6,1.5,8.9,0.4c2.2-0.8,4-2.2,5.4-4
	C353.6,279.3,351.5,276.6,350.3,273.4z M346.5,232.9c0,1,0.2,2,0.5,2.9c0.8,2.2,2.4,3.9,4.5,4.9c2.1,1,4.5,1.1,6.6,0.3
	c1.6-0.6,2.9-1.6,3.9-2.9c-1.7-1.6-3-3.5-3.8-5.7c-0.6-1.6-0.9-3.3-0.8-5C353.8,228.2,350.2,230,346.5,232.9z M334.4,246.4
	c3.7-0.5,6.9-2.6,8.8-5.8c-0.6-0.9-1.1-1.9-1.5-2.9c0-0.1-0.1-0.2-0.1-0.3C339.2,240,336.8,243,334.4,246.4z M328.8,255.7
	c0,1.3,0.2,2.6,0.6,3.8c0.7,1.9,2,3.4,3.5,4.8c0.7,0.7,1.6,1.3,2.2,1.5c1,0.4,3.1,0.8,4.4,0.8c4,0,7.7-2.2,9.6-5.8
	c-3.4-3.2-5.4-7.7-5.5-12.4c-3.4,2.6-7.6,3.9-11.8,3.6c-0.3,0-0.6-0.1-0.9-0.1C330.1,253.3,329.5,254.5,328.8,255.7z M322.6,272.1
	c2.4-0.7,4.5-2.1,6-4.1c-1.4-1.2-2.5-2.7-3.4-4.4C324.2,266.4,323.3,269.2,322.6,272.1z M323,290.9c1.3,0.6,2.7,0.9,4.2,0.9
	c3.4,0,6.6-1.8,8.4-4.7c-2.1-1.9-3.8-4.3-4.7-7c-0.6-1.8-1-3.6-1-5.5c-2.5,1.9-5.4,3.1-8.5,3.4c-0.6,3.5-1,7.1-1.2,10.8
	C321,289.7,321.9,290.4,323,290.9z M331.1,313.4c-0.2,0-0.5,0-0.7,0c-1.7-0.1-3.4-0.6-4.9-1.3c-1.9-0.9-3.5-2.2-4.8-3.8
	c0.4,3.9,0.9,7.2,1.3,9.3C324.2,316.8,327.4,315.4,331.1,313.4z M339.3,302.4c-1-1.3-1.7-2.7-2.2-4.1c-0.4-1.2-0.7-2.5-0.8-3.8
	c-2.9,2.1-6.5,3.1-10.1,2.9c-0.8-0.1-1.7-0.2-2.5-0.4c-0.6,1.8-0.6,3.6,0.1,5.4c0.7,2.1,2.3,3.7,4.2,4.7c2,0.9,4.2,1,6.3,0.3
	c2.1-0.7,3.7-2.3,4.7-4.2C339,302.9,339.1,302.6,339.3,302.4z M359,293.6c-0.8-1.8-1.2-3.7-1.3-5.7c-1.5,1.1-3.1,2-4.8,2.6
	c-2.3,0.8-4.7,1.2-7.1,1c-1.3-0.1-2.6-0.3-3.9-0.8c-0.4,1.9-0.3,3.8,0.3,5.6c0.9,2.5,2.7,4.5,5.1,5.6c0.4,0.2,0.8,0.3,1.4,0.5
	C352.5,299.7,356,296.7,359,293.6z M373.5,323.4l-0.1-0.4c-0.3-1.2-0.6-2.4-0.9-3.6l-0.4-1.7c-0.3-1.3-0.5-2.5-0.7-3.9l0-0.2
	c-0.1-0.6-0.2-1.2-0.3-1.9c-0.2-1.7-0.3-3.4-0.5-5.1l-0.1-1.3c-0.1-2.5-0.1-5.9,0.1-9.4c-3.5,3.1-6.9,5.5-9.8,6.9
	C364.5,309.8,368.9,316.9,373.5,323.4z M374.4,270.6c-0.8-1.2-1.5-2.5-2-3.8c-0.6-1.6-0.9-3.2-1-4.9c-1.5,1.1-3,2-4.7,2.6
	c-2.3,0.8-4.7,1.2-7.1,1c-1.4-0.1-2.8-0.4-4.2-0.8c-0.7,2.2-0.6,4.6,0.2,6.8c1,2.7,3,4.9,5.6,6.1c0.4,0.2,0.8,0.3,1.3,0.5
	c0,0,0.1,0,0.1,0c2.9,0.9,6,0.5,8.6-1C372.3,274.9,373.4,272.7,374.4,270.6z M379,239.8c-2.5,1.5-5.4,2.2-8.3,2
	c-0.6,0-1.2-0.1-1.9-0.3c-0.2,1.4-0.1,2.9,0.4,4.3c0.8,2.2,2.4,3.9,4.5,4.9c2,0.9,4.3,1.1,6.4,0.4
	C380.4,246.9,380.1,243.1,379,239.8z M392.1,323.4c-0.4-0.7-0.8-1.4-1.2-2.1l-0.2-0.3c-0.6-0.9-1.1-1.9-1.6-3l-0.5-0.9
	c-0.5-0.9-0.9-1.9-1.4-2.9c-0.2-0.5-0.5-1.1-0.7-1.6c-0.7-1.5-1.4-3.2-2.1-4.9c-0.2-0.5-0.4-0.9-0.5-1.4l-0.1-0.3
	c-0.4-1.1-0.8-2.1-1.2-3.2c-0.1,1-0.3,2-0.4,2.9c-0.2,1.8-0.3,3.8-0.4,5.7c0,0.6,0,1.3-0.1,2c0,1.1-0.1,2.3-0.1,3.4l0.1,5.1l0.3,4.5
	c0,0.9,0.1,1.8,0.2,2.6c0.1,0.5,0.1,1,0.1,1.5l0.3,3.5c0.1,0.3,0.1,0.7,0.1,1l0.1,0.1c0.1,0.1,0.2,0.2,0.2,0.3
	C385,332.9,388.2,329,392.1,323.4z M404.1,302.8c-0.1-0.1-0.2-0.1-0.4-0.2c-0.9-0.5-2-1.1-3.2-2c-1.3-1-2.5-2-3.5-3.1
	c-0.6-0.7-1.2-1.3-1.7-1.9c-0.6-0.7-1.1-1.4-1.6-2.1c-1-1.4-1.9-3-2.8-4.8c-0.8-1.6-1.6-3.4-2.2-5.2c-0.3-0.9-0.6-1.7-0.9-2.6
	c0,0,0,0.1,0,0.1l-0.1,0.3l0,0.4c0,0.8,0.1,1.8,0.1,2.6l0,0.2c0,0.5,0.1,0.9,0.1,1.4l0.1,0.9c0.1,1.3,0.2,2.5,0.3,3.8l0.1,1.1
	c0.1,1.3,0.3,2.6,0.5,3.9c0.2,1.5,0.4,3.2,0.8,5.2c0.2,1.1,0.4,2.2,0.6,3.3l0,0.1c0.1,0.6,0.2,1.2,0.3,1.8c0.4,1.7,0.7,3.4,1.1,4.9
	c0.1,0.5,0.3,1.1,0.4,1.6l0,0.1c0.3,1,0.5,2,0.8,2.8l0.3,1c0.3,1,0.6,2.1,1,3l0.2,0.5c0.5-0.7,0.9-1.5,1.4-2.2
	C398.8,312.9,401.6,307.9,404.1,302.8z M414.7,276c-0.3-0.1-0.6-0.2-0.8-0.4l-0.4-0.2c-1-0.5-2-1.1-2.9-1.7c-0.9-0.6-1.9-1.4-3-2.5
	c-1.2-1.2-2.2-2.2-3-3.3c-1.7-2.2-3.4-4.9-4.8-8c-0.6-1.3-1.2-2.7-1.7-4.2c-0.5,1.2-1,2.3-1.5,3.5l-1,2.2c0,0.5-0.1,1.1-0.1,1.6
	c-0.5,7.1-0.3,13.1,0.6,18.3c0.3,1.7,0.7,3.3,1.1,4.8c0.5,1.7,1,3.1,1.6,4.4c0.3,0.6,0.6,1.3,1,2c0.3,0.6,0.7,1.2,1,1.7l0.1,0.1
	c0.7,1,1.5,2,2.4,3.1c0.9,1,1.7,1.7,2.4,2.2C409.2,292,412.2,284.1,414.7,276z M419.1,245.9l-1.9-0.5c-0.8-0.3-1.6-0.6-2.5-1
	c-0.3-0.2-0.6-0.3-0.9-0.4c-0.6-0.3-1.3-0.6-1.9-1c-0.9-0.5-1.8-1-2.7-1.6c-0.7-0.5-1.4-1-2.1-1.5l-0.4-0.3
	c-0.6-0.5-1.2-0.9-1.7-1.4c-0.4,1.2-0.8,2.3-1.2,3.4c0,0.3,0,0.5,0,0.8c0,3.1,0.3,9.2,2,15.3c0.8,2.9,1.8,5.4,3,7.5
	c0.7,1.3,1.4,2.3,2,3.1c0.8,1,1.5,1.8,2.2,2.4c0.7,0.6,1.4,1.3,2.2,1.8l0.4,0.3c0,0,0.1,0.1,0.1,0.1c0.6-2.3,1.2-4.4,1.6-6.3
	C418.7,260.2,419.3,253.2,419.1,245.9z M146.3,307.2c-11.4,22.2-26.7,39.1-29.5,39.1c-0.1,0-0.2,0-0.2,0c-3.6-1.4-30.9-30.7-42-77.6
	c-8.3-35.1,8.9-72.2,18-83.8c1.3-1.6,3.1-3.5,4.2-3.5c0.4,0,1,0.2,1.1,1.5c1.2,22,12.7,25.3,25.9,29.1c6.9,2,14.1,4,20.3,9
	c11.8,2.6,22.8,13.2,32.9,31.7c16.4,30,7,68.7,6.6,70.3l-0.9,3.5l-3.4-1.2C178.7,325.1,162.2,319.4,146.3,307.2z M165.8,307.4
	c2.1,0.7,4.3,0.6,6.3-0.3c2-0.9,3.5-2.6,4.2-4.7c0.6-1.8,0.7-3.6,0.1-5.4c-0.8,0.2-1.7,0.3-2.5,0.4c-3.6,0.3-7.2-0.8-10.1-2.9
	c-0.1,1.3-0.4,2.6-0.8,3.8c-0.5,1.5-1.3,2.9-2.2,4.1c0.2,0.2,0.3,0.4,0.4,0.7C162.1,305.1,163.8,306.6,165.8,307.4z M143.6,281.3
	c1.4,1.8,3.2,3.2,5.4,4c2.9,1.1,6.1,0.9,8.9-0.4c2.8-1.3,5-3.7,6-6.6c0.7-2.1,0.9-4.3,0.4-6.4c-0.9,0.2-1.8,0.4-2.7,0.4
	c-3.9,0.3-7.9-0.9-11-3.2c-0.1,1.5-0.4,2.9-0.9,4.3C148.5,276.6,146.4,279.3,143.6,281.3z M150.1,252.2c0.7-2,0.9-4.2,0.4-6.3
	c-1.5,0.7-3.1,1.1-4.8,1.2c-2,0.1-4-0.1-5.9-0.8c-1.1-0.4-2.1-0.9-3.1-1.6c-0.1,1.1-0.4,2.1-0.7,3c-1.1,3.2-3.4,5.8-6.3,7.5
	c1.4,1.8,3.2,3.2,5.4,4c2.9,1.1,6.1,0.9,8.9-0.4C147,257.5,149.1,255.1,150.1,252.2z M179.3,308.4c-1.3,1.6-2.9,2.9-4.8,3.8
	c-1.5,0.7-3.2,1.2-4.9,1.3c-0.2,0-0.5,0-0.7,0c3.8,1.9,7,3.3,9.1,4.2C178.4,315.5,178.9,312.3,179.3,308.4z M178.6,278.1
	c-3.1-0.4-6-1.6-8.5-3.4c0,1.9-0.4,3.8-1,5.5c-1,2.7-2.6,5.1-4.7,7c1.8,2.9,5,4.7,8.4,4.7c1.5,0,2.9-0.3,4.2-0.9c1-0.5,2-1.2,2.8-2
	C179.6,285.2,179.2,281.5,178.6,278.1z M171.4,268.1c1.5,1.9,3.6,3.4,6,4.1c-0.7-2.9-1.6-5.8-2.6-8.4
	C173.9,265.4,172.8,266.8,171.4,268.1z M156.8,240.6c1.8,3.2,5,5.4,8.8,5.8c-2.3-3.4-4.8-6.5-7.2-9c0,0.1-0.1,0.2-0.1,0.3
	C157.9,238.7,157.4,239.7,156.8,240.6z M156.4,248.6c-0.1,4.7-2.1,9.2-5.5,12.4c1.9,3.6,5.5,5.8,9.6,5.8c1.3,0,3.4-0.4,4.4-0.8
	c0.6-0.2,1.6-0.9,2.2-1.5c1.5-1.4,2.8-2.9,3.5-4.8c0.4-1.2,0.6-2.5,0.6-3.8c-0.7-1.2-1.4-2.5-2.1-3.7c-0.3,0-0.6,0.1-0.9,0.1
	C164,252.4,159.8,251.1,156.4,248.6z M137.9,238.1c1,1.3,2.4,2.3,3.9,2.9c2.2,0.8,4.5,0.7,6.6-0.3c2.1-1,3.7-2.7,4.5-4.9
	c0.3-0.9,0.5-1.9,0.5-2.9c-3.6-2.9-7.3-4.8-10.9-5.5c0,1.7-0.3,3.4-0.8,5C141,234.6,139.6,236.6,137.9,238.1z M129.8,229.4
	c-2.6,1.4-4.7,3.2-6.2,5.4c2.5,1.6,5.7,1.9,8.5,0.6c2.1-1,3.7-2.7,4.5-4.9c0.4-1.1,0.6-2.3,0.5-3.5
	C134.5,227.3,132.1,228.1,129.8,229.4z M97.4,207.1c0.4,2.2,1,4.8,1.9,7.5c0.1,0.4,0.2,0.8,0.4,1.3c0.1,0.4,0.2,0.8,0.4,1.2l0.9,2.6
	c0.2,0.7,0.5,1.4,0.8,2.2l0.2,0.4c0.1,0.2,0.2,0.5,0.3,0.7l0.1,0.3c0.1,0.3,0.2,0.5,0.3,0.8c0.2,0.3,0.5,0.5,0.8,0.7
	c0.4,0.3,0.9,0.6,1.6,1c0.7,0.3,1.5,0.6,2.5,0.8c0.8,0.2,1.8,0.3,2.9,0.5c1,0.1,2.2,0.1,3.3,0c2.1-0.1,4.3-0.5,6.5-1.2
	c0.8-0.3,1.9-0.7,2.8-1.2c0.8-0.4,1.5-0.9,2.2-1.4c0.6-0.5,1-1,1.4-1.5c0,0,0.1-0.1,0.1-0.1c-1.6-0.5-3.3-1-5.2-1.5
	C113.2,217.7,103.9,215.1,97.4,207.1z M115.1,234.6c-1.5,0.5-3,0.8-4.3,1.1c-0.8,0.1-1.8,0.3-2.9,0.3l2.2,4.4
	c0.3,0.2,0.6,0.4,0.8,0.5c0.2,0.1,0.4,0.2,0.7,0.4c0.3,0.2,0.7,0.4,0.9,0.5c0.2,0.1,0.5,0.2,0.7,0.3l0.2,0.1
	c0.5-2.9,1.3-5.5,2.6-7.9C115.8,234.3,115.5,234.5,115.1,234.6z M81.3,240.5c0.3-0.3,0.7-0.5,1-0.8c0.2-0.2,0.5-0.4,0.7-0.7
	c0.4-0.4,0.8-0.7,1.1-1.2c0.6-0.6,1.1-1.3,1.7-2c0.4-0.5,0.8-1,1.2-1.6l0.3-0.4c0.5-0.7,0.9-1.5,1.3-2.1c0.7-1.2,1.3-2.5,1.9-3.8
	c0.2-0.5,0.4-1.1,0.5-1.5l0.2-0.6l0-0.1c0-0.1,0-0.2,0-0.4l0.1-0.6c-0.7-3.2-1.1-6-1.2-8.4c-0.3-2.9-0.3-5.9-0.1-9.1
	c-1.2,2.8-2.3,5.8-3.3,8.7C83.8,224.2,82.1,232.5,81.3,240.5z M85,272.7c0.8-0.5,1.5-1.2,2.2-1.8c0.7-0.6,1.3-1.4,2.2-2.4
	c0.6-0.8,1.3-1.9,2-3.1c1.2-2.1,2.2-4.7,3-7.5c1.7-6.1,2-12.2,2-15.3c0-0.3,0-0.5,0-0.8c-0.4-1.1-0.8-2.3-1.2-3.4
	c-0.5,0.4-1.1,0.9-1.7,1.4l-0.4,0.3c-0.7,0.5-1.4,1-2.1,1.5c-0.9,0.6-1.8,1.1-2.7,1.6c-0.6,0.4-1.3,0.7-1.9,1
	c-0.3,0.1-0.6,0.3-0.9,0.4c-0.9,0.4-1.7,0.7-2.5,1l-1.9,0.5c-0.3,7.3,0.4,14.3,1.9,20.8c0.5,1.9,1,4,1.6,6.3c0,0,0.1-0.1,0.1-0.1
	L85,272.7z M94.4,299.7c0.7-0.5,1.5-1.2,2.4-2.2c0.9-1,1.7-2,2.4-3.1l0.1-0.1c0.4-0.5,0.7-1.1,1-1.7c0.4-0.6,0.7-1.4,1-2
	c0.6-1.3,1.1-2.7,1.6-4.4c0.4-1.5,0.8-3.1,1.1-4.8c0.9-5.3,1.1-11.3,0.6-18.3c0-0.6-0.1-1.1-0.1-1.6l-1-2.2c-0.5-1.2-1-2.3-1.5-3.5
	c-0.5,1.5-1.1,2.9-1.7,4.2c-1.5,3.1-3.1,5.8-4.8,8c-0.8,1-1.7,2.1-2.9,3.3c-1.2,1.1-2.1,1.8-3,2.5c-0.9,0.6-1.9,1.2-2.9,1.7
	l-0.4,0.2c-0.3,0.1-0.5,0.3-0.8,0.4C87.8,284.1,90.8,292,94.4,299.7z M107.9,312.3c0.1-0.5,0.3-1.1,0.4-1.6c0.4-1.5,0.7-3.2,1.1-4.9
	c0.1-0.6,0.2-1.2,0.3-1.8l0-0.1c0.2-1.1,0.4-2.2,0.6-3.3c0.3-2,0.6-3.7,0.8-5.2c0.2-1.3,0.3-2.6,0.5-3.9l0.1-1.1
	c0.1-1.3,0.2-2.4,0.3-3.8l0.1-0.9c0-0.5,0.1-1,0.1-1.4l0-0.2c0.1-0.8,0.1-1.7,0.1-2.6l0-0.4l-0.1-0.3c0,0,0-0.1,0-0.1
	c-0.3,0.9-0.6,1.8-0.9,2.6c-0.7,1.8-1.4,3.6-2.2,5.2c-0.9,1.8-1.8,3.4-2.8,4.8c-0.5,0.7-1,1.4-1.6,2.1c-0.5,0.7-1.1,1.3-1.7,1.9
	c-1,1.1-2.2,2.1-3.5,3.1c-1.2,0.9-2.3,1.6-3.2,2c-0.1,0.1-0.3,0.1-0.4,0.2c2.5,5.1,5.3,10.1,8.2,14.7c0.5,0.8,0.9,1.5,1.4,2.2
	l0.2-0.5c0.4-0.9,0.7-2,1-3l0.3-1C107.3,314.4,107.6,313.4,107.9,312.3L107.9,312.3z M118.5,316.7c0-1.1,0-2.3-0.1-3.4
	c0-0.7,0-1.4-0.1-2c-0.1-1.9-0.3-3.9-0.4-5.7c-0.1-0.9-0.2-1.9-0.4-2.9c-0.4,1.1-0.8,2.1-1.2,3.2l-0.1,0.3c-0.2,0.5-0.4,0.9-0.5,1.4
	c-0.7,1.7-1.4,3.4-2.1,4.9c-0.3,0.5-0.5,1.1-0.7,1.6c-0.5,1-0.9,2-1.4,2.9L111,318c-0.5,1.1-1.1,2.1-1.6,3l-0.2,0.3
	c-0.4,0.7-0.8,1.4-1.2,2.1c3.9,5.6,7.1,9.5,9.1,11.8c0.1-0.1,0.2-0.2,0.2-0.3l0.1-0.1c0-0.3,0.1-0.7,0.1-1l0.3-3.5
	c0-0.5,0.1-1,0.1-1.5c0.1-0.8,0.2-1.7,0.2-2.6l0.3-4.5L118.5,316.7z M120,251.1c2.1,0.7,4.4,0.6,6.4-0.4c2.1-1,3.7-2.7,4.5-4.9
	c0.5-1.4,0.6-2.9,0.4-4.3c-0.7,0.1-1.3,0.2-1.9,0.3c-2.9,0.2-5.8-0.5-8.3-2C119.9,243.1,119.6,246.9,120,251.1z M125.6,270.6
	c0.9,2.1,2,4.3,3.2,6.5c2.6,1.5,5.7,1.9,8.6,1c0,0,0.1,0,0.1,0c0.5-0.2,0.9-0.3,1.3-0.5c2.6-1.2,4.6-3.4,5.6-6.1
	c0.8-2.2,0.9-4.6,0.2-6.8c-1.4,0.5-2.8,0.7-4.2,0.8c-2.4,0.2-4.8-0.2-7.1-1c-1.7-0.6-3.3-1.5-4.7-2.6c-0.1,1.7-0.4,3.3-1,4.9
	C127.1,268.1,126.5,269.4,125.6,270.6z M139,302.8c-2.9-1.4-6.2-3.7-9.8-6.9c0.2,3.5,0.2,6.8,0.1,9.4l-0.1,1.3
	c-0.1,1.8-0.2,3.4-0.5,5.1c-0.1,0.6-0.2,1.2-0.3,1.9l0,0.2c-0.2,1.3-0.4,2.6-0.7,3.9l-0.4,1.7c-0.3,1.2-0.6,2.4-0.9,3.6l-0.1,0.4
	C131.1,316.9,135.5,309.8,139,302.8z M141,293.6c3.1,3.1,6.5,6.1,10.3,8.9c0.5-0.2,1-0.3,1.4-0.5c2.4-1.1,4.2-3.1,5.1-5.6
	c0.7-1.8,0.8-3.8,0.3-5.6c-1.3,0.4-2.6,0.7-3.9,0.8c-2.4,0.2-4.8-0.2-7.1-1c-1.7-0.6-3.3-1.5-4.8-2.6
	C142.2,289.8,141.7,291.7,141,293.6z M358.5,385c-11.2-5.2-23.9,1.2-31.4,8.8c-2.6,2.4-4.7,5.2-6.2,8.1c12.5-7.6,21.1-7.8,26.9-6.6
	c4.3,0.9,7.7,5.7,5.9,8.5c-0.1,0.1-0.2,0.2-0.4,0.2c0,0,0.1,0.1,0.1,0.1c-0.3,0.3-0.6,0.6-1.1,0.9c2.3,3.5,7.2,3.2,10-0.1
	c0.4-0.4,0.9-0.8,1.2-1.2C369.1,396.8,364.8,387.9,358.5,385z M172.8,393.8c-7.5-7.5-20.2-14-31.4-8.8c-6.3,2.9-10.6,11.8-5.1,18.7
	c0.4,0.5,0.8,0.9,1.2,1.2c2.8,3.2,7.7,3.6,10,0.1c-0.5-0.2-0.8-0.5-1.1-0.9c0,0,0.1-0.1,0.1-0.1c-0.1-0.1-0.2-0.2-0.4-0.2
	c-1.8-2.8,1.6-7.6,5.9-8.5c5.8-1.2,14.4-1,26.9,6.6C177.6,398.9,175.4,396.2,172.8,393.8z"/>
</svg>
